<svg width="45" height="45" viewBox="0 0 45 45" fill="none" xmlns="http://www.w3.org/2000/svg">
<path d="M30.7669 3.75H14.4038L3.75 14.4038V30.6394L14.3175 41.25H30.5963L41.25 30.5963V14.3175L30.7669 3.75ZM38.0119 29.1469L29.1469 38.0119H15.8531L6.98813 29.1994V15.8531L15.8531 7.04063H29.3175L38.0119 15.7762V29.1469ZM24.2438 9.11812V35.7956H28.335L36.09 28.0819V22.4569H30.1238V25.6875H32.34C32.9362 25.6031 32.9794 26.2856 32.5519 26.7956C32.1244 27.3056 27.8231 31.5262 27.8231 31.5262V13.38L32.8519 18.63V19.9088H36.09V16.9181L28.4194 9.11812H24.2438ZM14.5369 18.2381L12.2794 13.6369L8.91375 16.7906V28.0819L12.1519 31.3631V20.37L14.9644 26.6325L18.1594 18.2812V35.7956H21.7388V9.11812H17.9475L14.5369 18.2381Z" fill="#0995FE"/>
</svg>
