<svg width="15" height="15" viewBox="0 0 15 15" fill="white" xmlns="http://www.w3.org/2000/svg">
<rect width="15" height="15" rx="3" fill="white"/>
<path d="M1.53376 4.9622C1.70957 4.78645 1.94799 4.68771 2.19658 4.68771C2.44517 4.68771 2.68358 4.78645 2.85939 4.9622L7.50001 9.60283L12.1406 4.9622C12.3175 4.79143 12.5543 4.69693 12.8001 4.69907C13.0459 4.7012 13.281 4.7998 13.4548 4.97362C13.6287 5.14744 13.7273 5.38258 13.7294 5.62839C13.7315 5.8742 13.637 6.11101 13.4663 6.28783L8.16283 11.5913C7.98702 11.767 7.74861 11.8658 7.50001 11.8658C7.25142 11.8658 7.01301 11.767 6.8372 11.5913L1.53376 6.28783C1.35801 6.11202 1.25928 5.8736 1.25928 5.62501C1.25928 5.37642 1.35801 5.13801 1.53376 4.9622Z" fill="#222222"/>
</svg>
