<svg width="31" height="30" viewBox="0 0 31 30" fill="none" xmlns="http://www.w3.org/2000/svg">
<path d="M15.5 25.2C9.85999 25.2 5.29999 20.64 5.29999 15C5.29999 9.35999 9.85999 4.79999 15.5 4.79999C21.14 4.79999 25.7 9.35999 25.7 15C25.7 20.64 21.14 25.2 15.5 25.2ZM15.5 5.99999C10.52 5.99999 6.49999 10.02 6.49999 15C6.49999 19.98 10.52 24 15.5 24C20.48 24 24.5 19.98 24.5 15C24.5 10.02 20.48 5.99999 15.5 5.99999Z" fill="black"/>
<path d="M14.3 19.44L9.07999 14.22L9.91999 13.38L14.3 17.76L21.08 10.98L21.92 11.82L14.3 19.44Z" fill="black"/>
</svg>
