<svg width="15" height="15" viewBox="0 0 15 15" fill="none" xmlns="http://www.w3.org/2000/svg">
<path d="M12.2162 11.2212C12.3483 11.3533 12.4225 11.5325 12.4225 11.7193C12.4225 11.9061 12.3483 12.0852 12.2162 12.2173C12.0841 12.3494 11.9049 12.4236 11.7181 12.4236C11.5313 12.4236 11.3522 12.3494 11.2201 12.2173L7.49997 8.49604L3.77869 12.2162C3.6466 12.3483 3.46744 12.4225 3.28064 12.4225C3.09383 12.4225 2.91468 12.3483 2.78259 12.2162C2.6505 12.0841 2.57629 11.9049 2.57629 11.7181C2.57629 11.5313 2.6505 11.3522 2.78259 11.2201L6.50388 7.49995L2.78376 3.77866C2.65167 3.64657 2.57747 3.46742 2.57747 3.28061C2.57747 3.09381 2.65167 2.91466 2.78376 2.78257C2.91585 2.65048 3.09501 2.57627 3.28181 2.57627C3.46861 2.57627 3.64777 2.65048 3.77986 2.78257L7.49997 6.50386L11.2213 2.78198C11.3534 2.64989 11.5325 2.57568 11.7193 2.57568C11.9061 2.57568 12.0853 2.64989 12.2174 2.78198C12.3494 2.91407 12.4237 3.09322 12.4237 3.28003C12.4237 3.46683 12.3494 3.64599 12.2174 3.77808L8.49607 7.49995L12.2162 11.2212Z" fill="#222222"/>
</svg>
